#!OML:ASF E:\emotionWalksFemale\Project 1\Capture day 1\Session 1\Female1.ASF
:FULLY-SPECIFIED
:DEGREES
2766
root 9.17604 15.3561 35.2631 359.213 24.7124 -366.155
lowerback 6.98476 1.28329 4.6376
upperback -4.16279 2.44223 2.7084
thorax -8.2607 1.02847 -0.0801074
lowerneck 1.18358 -12.0379 -12.3879
upperneck 1.41862 -16.3088 7.78173
head 1.86772 -8.18447 3.80403
rclavicle 3.98315e-014 1.15295e-014
rhumerus -19.8782 3.82568 -79.3154
rradius 44.2384
rwrist 11.8965
rhand -4.53146 -50.9466
rfingers 7.12502
rthumb 21.2435 280.198
lclavicle 3.98315e-014 1.15295e-014
lhumerus -48.4261 1.38673 86.0273
lradius 42.4447
lwrist -8.98003
lhand -6.23729 -33.7212
lfingers 7.12502
lthumb 19.6042 -4.68965
rfemur -2.88835 3.10638 32.706
rtibia 23.7455
rfoot -22.8466 -31.2729
rtoes 13.0637
lfemur -19.1512 0.712959 -22.5354
ltibia 33.4737
lfoot -41.4553 34.4072
ltoes 39.7553
2767
root 9.23559 15.371 35.2764 359.904 25.4376 -365.215
lowerback 6.84037 1.28683 4.28211
upperback -4.3345 2.38308 2.38885
thorax -8.36074 1.00544 -0.208681
lowerneck 1.39116 -12.204 -12.5467
upperneck 1.35444 -16.5605 7.95658
head 1.86818 -8.31345 3.8743
rclavicle -3.2054e-014 -2.78299e-014
rhumerus -20.2993 3.61764 -79.4585
rradius 44.2367
rwrist 12.1412
rhand -3.0101 -51.4878
rfingers 7.12502
rthumb 22.7043 279.828
lclavicle -3.2054e-014 -2.78299e-014
lhumerus -48.7348 0.917742 86.4544
lradius 44.0202
lwrist -7.87723
lhand -6.48871 -33.4614
lfingers 7.12502
lthumb 19.3625 -4.40543
rfemur -3.915 0.91177 31.2079
rtibia 25.3781
rfoot -21.6979 -29.8083
rtoes 9.78609
lfemur -18.9004 0.167265 -23.6817
ltibia 32.8116
lfoot -40.6062 34.7556
ltoes 38.5612
2768
root 9.26827 15.373 35.3293 359.384 25.8608 -365.653
lowerback 6.90414 1.34123 4.47441
upperback -4.22068 2.48936 2.56629
thorax -8.27327 1.05536 -0.143991
lowerneck 1.49604 -12.3695 -12.5927
upperneck 1.24299 -16.7917 7.98659
head 1.84748 -8.42959 3.88452
rclavicle 3.27995e-014 2.94201e-014
rhumerus -20.6644 3.26899 -79.6283
rradius 44.1781
rwrist 12.5092
rhand -1.75168 -51.8758
rfingers 7.12502
rthumb 23.9115 279.593
lclavicle 3.27995e-014 2.94201e-014
lhumerus -48.5186 0.436156 86.8268
lradius 44.6825
lwrist -6.67514
lhand -7.6634 -35.1504
lfingers 7.12502
lthumb 18.2327 -5.98496
rfemur -4.37483 -0.156078 31.4005
rtibia 27.2707
rfoot -21.2522 -29.025
rtoes 7.62195
lfemur -18.0243 -0.0684998 -23.2514
ltibia 32.1684
lfoot -40.0175 34.6909
ltoes 37.977
2769
root 9.30665 15.3784 35.3742 359.558 26.3543 -365.156
lowerback 6.72239 1.42366 3.91988
upperback -4.17802 2.52283 2.50444
thorax -8.13637 1.1037 0.100385
lowerneck 1.72403 -12.5611 -12.5937
upperneck 0.943036 -17.0612 7.90807
head 1.74133 -8.56535 3.87164
rclavicle -3.09359e-014 3.18055e-015
rhumerus -21.0574 3.66047 -79.8564
rradius 43.934
rwrist 11.4389
rhand -2.1562 -52.128
rfingers 7.12502
rthumb 23.5236 279.29
lclavicle -3.09359e-014 3.18055e-015
lhumerus -48.1666 0.183403 87.1391
lradius 45.0103
lwrist -5.97422
lhand -8.642 -36.7645
lfingers 7.12502
lthumb 17.291 -7.51375
rfemur -5.30033 -1.31106 30.5963
rtibia 29.4818
rfoot -20.8306 -27.9671
rtoes 6.21242
lfemur -17.3777 -0.259862 -23.8134
ltibia 31.3827
lfoot -38.961 34.8559
ltoes 36.5445
2770
root 9.34053 15.3793 35.4162 359.757 26.9315 -364.445
lowerback 6.67803 1.47599 3.22766
upperback -4.13952 2.50418 2.34487
thorax -8.08691 1.12833 0.322328
lowerneck 1.92567 -12.7362 -12.638
upperneck 0.769602 -17.3141 7.92005
head 1.68729 -8.69355 3.88486
rclavicle 5.26282e-014 1.98785e-014
rhumerus -21.5256 3.34776 -80.1691
rradius 43.7673
rwrist 11.0648
rhand -1.13633 -52.8815
rfingers 7.12502
rthumb 24.5015 278.666
lclavicle 5.26282e-014 1.98785e-014
lhumerus -48.0446 -0.372763 87.5084
lradius 45.7203
lwrist -5.09432
lhand -9.00031 -36.9192
lfingers 7.12502
lthumb 16.9461 -7.63844
rfemur -6.18857 -2.30287 29.6171
rtibia 31.7964
rfoot -20.5424 -27.0388
rtoes 4.9835
lfemur -16.6896 -0.553255 -24.5645
ltibia 30.6493
lfoot -38.5103 34.5068
ltoes 36.3017
2771
root 9.36555 15.3811 35.4671 359.641 27.478 -364.273
lowerback 6.61516 1.49978 2.73039
upperback -4.04767 2.48348 2.4119
thorax -7.97372 1.14957 0.675831
lowerneck 2.15418 -12.8834 -12.7039
upperneck 0.541671 -17.5327 7.98507
head 1.6162 -8.80458 3.92256
rclavicle 1.96548e-014 1.59028e-015
rhumerus -21.8356 3.22062 -80.3806
rradius 43.4545
rwrist 11.3919
rhand 1.26546 -53.3677
rfingers 7.12502
rthumb 26.8019 278.511
lclavicle 1.96548e-014 1.59028e-015
lhumerus -48.0047 -0.91375 87.9071
lradius 46.6204
lwrist -3.9342
lhand -8.89449 -36.4273
lfingers 7.12502
lthumb 17.048 -7.15532
rfemur -7.15422 -2.88562 29.2599
rtibia 34.3819
rfoot -19.7288 -26.3846
rtoes 3.0271
lfemur -15.881 -0.846959 -24.7356
ltibia 29.7295
lfoot -38.2607 34.1077
ltoes 36.6227
2772
root 9.42185 15.3887 35.4675 360.001 28.4052 -363.787
lowerback 6.75044 1.43709 2.43934
upperback -4.15681 2.3901 2.51769
thorax -8.18742 1.12134 0.958631
lowerneck 2.29138 -13.0524 -12.8986
upperneck 0.332214 -17.7628 7.67409
head 1.54173 -8.919 3.86341
rclavicle -6.04554e-014 -5.56597e-015
rhumerus -22.1406 3.34333 -80.0453
rradius 43.1373
rwrist 11.8182
rhand 1.9084 -53.0108
rfingers 7.12502
rthumb 27.417 278.964
lclavicle -6.04554e-014 -5.56597e-015
lhumerus -47.8742 -1.18247 88.7114
lradius 47.2269
lwrist -3.14523
lhand -9.27052 -36.5188
lfingers 7.12502
lthumb 16.686 -7.21599
rfemur -8.5529 -4.45831 28.2277
rtibia 37.0753
rfoot -18.1786 -24.947
rtoes 0.475428
lfemur -15.4066 -1.18146 -25.4522
ltibia 28.774
lfoot -37.0683 34.3764
ltoes 34.9799
2773
root 9.47984 15.3904 35.4568 360.254 29.5619 -363.347
lowerback 7.03621 1.29459 2.83472
upperback -4.25225 2.24128 2.31158
thorax -8.43453 1.01594 0.533123
lowerneck 2.32246 -13.205 -12.9509
upperneck 0.301119 -17.9652 7.46227
head 1.53158 -9.0196 3.80085
rclavicle -3.94091e-014 -8.74653e-015
rhumerus -22.4844 3.00904 -80.0682
rradius 42.8053
rwrist 11.9981
rhand 9.34853 -56.3075
rfingers 7.12502
rthumb 34.5082 277.023
lclavicle -3.94091e-014 -8.74653e-015
lhumerus -47.7512 -1.75 89.1936
lradius 47.936
lwrist -2.73123
lhand -9.91018 -36.8168
lfingers 7.12502
lthumb 16.0701 -7.46322
rfemur -9.79142 -6.11862 27.1426
rtibia 39.6985
rfoot -17.4177 -23.5741
rtoes -1.49944
lfemur -14.8482 -1.85497 -26.1924
ltibia 27.9484
lfoot -36.0969 34.5775
ltoes 33.8486
2774
root 9.50593 15.3897 35.4945 360.63 30.4871 -362.841
lowerback 6.77366 1.26778 2.42186
upperback -4.28249 2.13725 2.13952
thorax -8.32017 0.984295 0.602596
lowerneck 2.53759 -13.3405 -12.8713
upperneck 0.157973 -18.166 7.4203
head 1.46354 -9.12151 3.78807
rclavicle 7.16122e-014 -2.26615e-014
rhumerus -22.8623 2.63409 -80.3495
rradius 42.3508
rwrist 11.9339
rhand 7.68778 -55.8927
rfingers 7.12502
rthumb 32.9301 277.092
lclavicle 7.16122e-014 -2.26615e-014
lhumerus -47.708 -2.31211 89.4228
lradius 48.8426
lwrist -2.58261
lhand -10.1539 -36.8292
lfingers 7.12502
lthumb 15.8355 -7.45685
rfemur -11.1708 -6.55429 26.4216
rtibia 42.2961
rfoot -16.7991 -23.0384
rtoes -2.61166
lfemur -14.4321 -2.63535 -26.7474
ltibia 27.1439
lfoot -35.6767 34.5679
ltoes 33.9897
2775
root 9.53459 15.3877 35.5257 360.579 31.4418 -362.677
lowerback 7.00728 1.17244 2.38659
upperback -4.32177 2.0097 2.05242
thorax -8.49781 0.918887 0.542931
lowerneck 2.68335 -13.4634 -12.9237
upperneck 0.124672 -18.3496 7.46539
head 1.45746 -9.21557 3.80737
rclavicle -9.69075e-015 -1.55052e-014
rhumerus -23.2919 2.42473 -80.633
rradius 41.8731
rwrist 12.0202
rhand -0.371843 -51.8036
rfingers 7.12502
rthumb 25.2342 279.845
lclavicle -9.69075e-015 -1.55052e-014
lhumerus -47.6596 -2.91147 89.6518
lradius 49.5409
lwrist -2.27007
lhand -10.2829 -37.0326
lfingers 7.12502
lthumb 15.7112 -7.65038
rfemur -12.1943 -7.029 25.966
rtibia 44.7393
rfoot -15.6318 -22.3869
rtoes -4.58085
lfemur -13.8101 -3.05024 -27.0034
ltibia 26.4296
lfoot -34.6233 34.7585
ltoes 32.2115
2776
root 9.56284 15.3875 35.5547 360.367 32.4373 -362.504
lowerback 7.47185 1.09237 2.34257
upperback -4.29661 1.90948 1.9903
thorax -8.74277 0.867294 0.507246
lowerneck 2.60514 -13.6412 -13.0501
upperneck 0.197839 -18.5828 7.47095
head 1.52587 -9.33138 3.79948
rclavicle -3.42655e-014 -2.50469e-014
rhumerus -23.7321 2.13269 -80.7853
rradius 41.5885
rwrist 12.2238
rhand 1.75735 -51.896
rfingers 7.12502
rthumb 27.2725 280.056
lclavicle -3.42655e-014 -2.50469e-014
lhumerus -47.5 -3.53104 89.8905
lradius 50.1168
lwrist -2.08134
lhand -10.5476 -37.6653
lfingers 7.12502
lthumb 15.4563 -8.26319
rfemur -12.9741 -7.19107 25.5006
rtibia 47.0507
rfoot -14.9252 -21.8304
rtoes -2.90319
lfemur -13.0495 -3.12881 -27.2804
ltibia 25.7313
lfoot -32.6984 35.1828
ltoes 28.4219
